<svg width="165" height="177" viewBox="0 0 165 177" fill="none" xmlns="http://www.w3.org/2000/svg">
<g filter="url(#filter0_dii_150_26)">
<circle cx="36.1338" cy="48.4088" r="18.1064" fill="#FFDE67"/>
</g>
<g filter="url(#filter1_f_150_26)">
<path d="M53.033 48.8916C53.033 46.6724 52.5959 44.4749 51.7467 42.4245C50.8974 40.3742 49.6526 38.5113 48.0833 36.942C46.5141 35.3728 44.6511 34.128 42.6008 33.2787C40.5505 32.4294 38.353 31.9923 36.1337 31.9923C33.9145 31.9923 31.7169 32.4294 29.6666 33.2787C27.6163 34.128 25.7533 35.3728 24.1841 36.942C22.6148 38.5113 21.37 40.3742 20.5208 42.4246C19.6715 44.4749 19.2344 46.6724 19.2344 48.8916L36.1337 48.8916H53.033Z" fill="url(#paint0_linear_150_26)"/>
</g>
<g filter="url(#filter2_f_150_26)">
<path d="M19.7953 53.7953C20.425 55.9233 21.4677 57.9065 22.8639 59.6315C24.26 61.3566 25.9823 62.7898 27.9323 63.8492C29.8823 64.9087 32.022 65.5737 34.229 65.8063C36.436 66.0388 38.6673 65.8344 40.7953 65.2047C42.9233 64.575 44.9065 63.5323 46.6315 62.1361C48.3566 60.74 49.7898 59.0177 50.8492 57.0677C51.9087 55.1176 52.5737 52.978 52.8063 50.771C53.0389 48.564 52.8344 46.3327 52.2047 44.2047L36 49L19.7953 53.7953Z" fill="url(#paint1_linear_150_26)"/>
</g>
<circle cx="28.9503" cy="43.5201" r="2.11242" fill="#352121"/>
<g filter="url(#filter3_f_150_26)">
<circle cx="28.9502" cy="42.675" r="0.704139" fill="#FFF850"/>
</g>
<g filter="url(#filter4_i_150_26)">
<circle cx="42.9542" cy="43.5201" r="2.11242" fill="#352121"/>
<g filter="url(#filter5_f_150_26)">
<circle cx="42.9541" cy="42.675" r="0.704139" fill="#FFF850"/>
</g>
</g>
<path d="M44.5681 58.6686C44.6858 58.9827 45.0604 58.9019 44.9992 58.5722C44.6674 56.7857 43.8026 55.1266 42.4997 53.8236C40.8019 52.1258 38.4992 51.172 36.0981 51.172C33.6971 51.172 31.3944 52.1258 29.6965 53.8236C28.3854 55.1348 27.5179 56.8068 27.1908 58.6062C27.1308 58.9364 27.5125 59.012 27.6331 58.6989C30.6214 50.9448 41.6524 50.8869 44.5681 58.6686Z" fill="#352121"/>
<defs>
<filter id="filter0_dii_150_26" x="-11.9727" y="-29.6976" width="176.213" height="206.213" filterUnits="userSpaceOnUse" color-interpolation-filters="sRGB">
<feFlood flood-opacity="0" result="BackgroundImageFix"/>
<feColorMatrix in="SourceAlpha" type="matrix" values="0 0 0 0 0 0 0 0 0 0 0 0 0 0 0 0 0 0 127 0" result="hardAlpha"/>
<feOffset dx="40" dy="40"/>
<feGaussianBlur stdDeviation="35"/>
<feComposite in2="hardAlpha" operator="out"/>
<feColorMatrix type="matrix" values="0 0 0 0 0 0 0 0 0 0 0 0 0 0 0 0 0 0 0.25 0"/>
<feBlend mode="normal" in2="BackgroundImageFix" result="effect1_dropShadow_150_26"/>
<feBlend mode="normal" in="SourceGraphic" in2="effect1_dropShadow_150_26" result="shape"/>
<feColorMatrix in="SourceAlpha" type="matrix" values="0 0 0 0 0 0 0 0 0 0 0 0 0 0 0 0 0 0 127 0" result="hardAlpha"/>
<feOffset dx="20" dy="20"/>
<feGaussianBlur stdDeviation="20"/>
<feComposite in2="hardAlpha" operator="arithmetic" k2="-1" k3="1"/>
<feColorMatrix type="matrix" values="0 0 0 0 0.804167 0 0 0 0 0.43425 0 0 0 0 0 0 0 0 1 0"/>
<feBlend mode="normal" in2="shape" result="effect2_innerShadow_150_26"/>
<feColorMatrix in="SourceAlpha" type="matrix" values="0 0 0 0 0 0 0 0 0 0 0 0 0 0 0 0 0 0 127 0" result="hardAlpha"/>
<feOffset dx="-30" dy="-60"/>
<feGaussianBlur stdDeviation="50"/>
<feComposite in2="hardAlpha" operator="arithmetic" k2="-1" k3="1"/>
<feColorMatrix type="matrix" values="0 0 0 0 1 0 0 0 0 0.72 0 0 0 0 0 0 0 0 1 0"/>
<feBlend mode="normal" in2="effect2_innerShadow_150_26" result="effect3_innerShadow_150_26"/>
</filter>
<filter id="filter1_f_150_26" x="-0.765625" y="11.9923" width="73.7988" height="56.8993" filterUnits="userSpaceOnUse" color-interpolation-filters="sRGB">
<feFlood flood-opacity="0" result="BackgroundImageFix"/>
<feBlend mode="normal" in="SourceGraphic" in2="BackgroundImageFix" result="shape"/>
<feGaussianBlur stdDeviation="10" result="effect1_foregroundBlur_150_26"/>
</filter>
<filter id="filter2_f_150_26" x="-0.205078" y="24.2047" width="73.1035" height="61.6946" filterUnits="userSpaceOnUse" color-interpolation-filters="sRGB">
<feFlood flood-opacity="0" result="BackgroundImageFix"/>
<feBlend mode="normal" in="SourceGraphic" in2="BackgroundImageFix" result="shape"/>
<feGaussianBlur stdDeviation="10" result="effect1_foregroundBlur_150_26"/>
</filter>
<filter id="filter3_f_150_26" x="15.2461" y="28.9708" width="27.4082" height="27.4083" filterUnits="userSpaceOnUse" color-interpolation-filters="sRGB">
<feFlood flood-opacity="0" result="BackgroundImageFix"/>
<feBlend mode="normal" in="SourceGraphic" in2="BackgroundImageFix" result="shape"/>
<feGaussianBlur stdDeviation="6.5" result="effect1_foregroundBlur_150_26"/>
</filter>
<filter id="filter4_i_150_26" x="40.8418" y="41.4077" width="4.22461" height="9.22485" filterUnits="userSpaceOnUse" color-interpolation-filters="sRGB">
<feFlood flood-opacity="0" result="BackgroundImageFix"/>
<feBlend mode="normal" in="SourceGraphic" in2="BackgroundImageFix" result="shape"/>
<feColorMatrix in="SourceAlpha" type="matrix" values="0 0 0 0 0 0 0 0 0 0 0 0 0 0 0 0 0 0 127 0" result="hardAlpha"/>
<feOffset dy="5"/>
<feGaussianBlur stdDeviation="5"/>
<feComposite in2="hardAlpha" operator="arithmetic" k2="-1" k3="1"/>
<feColorMatrix type="matrix" values="0 0 0 0 0 0 0 0 0 0 0 0 0 0 0 0 0 0 1 0"/>
<feBlend mode="normal" in2="shape" result="effect1_innerShadow_150_26"/>
</filter>
<filter id="filter5_f_150_26" x="29.25" y="28.9708" width="27.4082" height="27.4083" filterUnits="userSpaceOnUse" color-interpolation-filters="sRGB">
<feFlood flood-opacity="0" result="BackgroundImageFix"/>
<feBlend mode="normal" in="SourceGraphic" in2="BackgroundImageFix" result="shape"/>
<feGaussianBlur stdDeviation="6.5" result="effect1_foregroundBlur_150_26"/>
</filter>
<linearGradient id="paint0_linear_150_26" x1="36.1337" y1="31.9923" x2="36.1337" y2="46.4775" gradientUnits="userSpaceOnUse">
<stop stop-color="white"/>
<stop offset="1" stop-color="white" stop-opacity="0"/>
</linearGradient>
<linearGradient id="paint1_linear_150_26" x1="41.5732" y1="64.0693" x2="36.8726" y2="51.329" gradientUnits="userSpaceOnUse">
<stop stop-color="#D36500"/>
<stop offset="1" stop-color="white" stop-opacity="0"/>
</linearGradient>
</defs>
</svg>
