<svg width="205" height="176" viewBox="0 0 205 176" fill="none" xmlns="http://www.w3.org/2000/svg">
<path d="M93.8092 20.1081C97.1006 12.4927 107.899 12.4927 111.191 20.1081C113.74 26.0065 121.3 27.7062 126.128 23.4666L128.306 21.5549C134.121 16.4493 143.2 20.9718 142.628 28.6889C142.17 34.8675 148.17 39.5072 154.034 37.5094L157.933 36.1814C164.956 33.7891 171.126 41.4872 167.262 47.8209C164.103 53.0003 167.691 59.6649 173.754 59.8792L176.395 59.9726C183.853 60.2363 186.633 69.8772 180.461 74.0711C175.408 77.504 176.215 85.1921 181.835 87.5832C188.836 90.5614 187.986 100.814 180.555 102.447L179.416 102.698C173.49 104 171.286 111.294 175.499 115.66C180.636 120.983 176.117 129.79 168.798 128.723L165.149 128.19C159.102 127.308 154.234 133.086 156.128 138.896C158.465 146.059 150.753 152.34 144.21 148.603L140.871 146.695C135.394 143.566 128.473 146.833 127.409 153.051C126.058 160.943 115.899 163.356 111.144 156.913L110.298 155.767C106.424 150.518 98.5756 150.518 94.7018 155.767L93.8559 156.913C89.1012 163.356 78.9415 160.943 77.5909 153.051C76.5269 146.833 69.6061 143.566 64.1291 146.695L60.7897 148.603C54.2474 152.34 46.5355 146.059 48.8717 138.896C50.7664 133.086 45.898 127.308 39.8511 128.19L36.202 128.723C28.883 129.79 24.3645 120.983 29.5006 115.66C33.7137 111.294 31.5095 104 25.5838 102.698L24.445 102.447C17.0143 100.814 16.1637 90.5614 23.1645 87.5832C28.7855 85.1921 29.5919 77.504 24.5394 74.0711C18.3669 69.8772 21.1469 60.2363 28.6046 59.9726L31.2461 59.8792C37.3092 59.6649 40.8971 53.0003 37.7376 47.8209C33.874 41.4872 40.0444 33.7891 47.0672 36.1814L50.9659 37.5094C56.8305 39.5072 62.8305 34.8675 62.3724 28.6889C61.8003 20.9718 70.8794 16.4493 76.6945 21.5549L78.8718 23.4666C83.7005 27.7062 91.2599 26.0065 93.8092 20.1081Z" fill="#FEC600"/>
<path d="M76.0785 48.3346C76.209 49.0774 76.2714 49.7566 76.2658 50.3723C76.263 50.9738 76.1142 51.5346 75.8194 52.0547C75.5247 52.5748 75.0201 53.0796 74.3058 53.569C74.0847 53.7204 73.8309 53.8698 73.5446 54.017C73.2583 54.1642 72.9848 54.2843 72.724 54.3773L71.6183 52.7486C71.8791 52.6923 72.1441 52.5964 72.4134 52.4608C72.6827 52.3253 72.9236 52.1847 73.1362 52.039C73.5614 51.7477 73.7995 51.4378 73.8505 51.1091C73.8959 50.7722 73.8746 50.4196 73.7867 50.0516L66.2725 45.783L68.3135 44.3848L72.6383 47.0938C72.7829 47.1783 72.9856 47.3025 73.2464 47.4664C73.5016 47.622 73.7085 47.7617 73.8673 47.8855L73.931 47.8418C73.88 47.6565 73.819 47.4107 73.7481 47.1044C73.6857 46.7922 73.6304 46.5181 73.5822 46.2819L72.6123 41.4397L74.6022 40.0764L76.0785 48.3346Z" fill="white"/>
<path d="M84.4221 47.7446C83.2673 48.2374 82.2436 48.306 81.351 47.9503C80.4641 47.5813 79.7409 46.7191 79.1817 45.3636C78.796 44.4288 78.6426 43.5983 78.7214 42.872C78.8003 42.1457 79.0658 41.5212 79.518 40.9984C79.9797 40.4715 80.5844 40.0485 81.3322 39.7294C81.8623 39.5032 82.3426 39.3587 82.7731 39.2959C83.2131 39.229 83.6087 39.2031 83.96 39.2181L84.0006 41.0972C83.6153 41.1078 83.2586 41.1336 82.9304 41.1747C82.6117 41.2117 82.3104 41.2908 82.0265 41.412C80.9285 41.8806 80.6976 42.8861 81.334 44.4285C81.6503 45.1951 82.0256 45.7 82.46 45.9434C82.9039 46.1828 83.3861 46.1913 83.9067 45.9692C84.3516 45.7793 84.7213 45.5556 85.0157 45.298C85.3063 45.031 85.5701 44.726 85.8071 44.383L86.5419 46.1638C86.3049 46.5068 86.0239 46.7971 85.6989 47.0348C85.3873 47.2777 84.9617 47.5143 84.4221 47.7446Z" fill="white"/>
<path d="M93.6759 36.3955L95.307 44.5401L93.0663 45.0303L91.7698 38.5564L88.7923 39.2078L90.0888 45.6817L87.8482 46.1719L86.2171 38.0273L93.6759 36.3955Z" fill="white"/>
<path d="M100.098 35.8721C101.253 35.8511 102.167 36.1653 102.84 36.8148C103.513 37.4541 103.848 38.3796 103.844 39.5912L103.841 40.6909L98.4447 40.7893C98.4634 41.4303 98.6512 41.9309 99.0079 42.2909C99.3749 42.6507 99.8804 42.8248 100.524 42.8131C101.066 42.8032 101.557 42.7433 101.997 42.6335C102.436 42.5135 102.892 42.3372 103.362 42.1046L103.358 43.861C102.948 44.0721 102.514 44.2276 102.053 44.3276C101.603 44.4377 101.056 44.4985 100.412 44.5103C99.5743 44.5256 98.8337 44.3863 98.1905 44.0926C97.5475 43.7887 97.0428 43.3245 96.6765 42.6999C96.3103 42.0754 96.1284 41.2845 96.131 40.3275C96.1336 39.35 96.2993 38.5376 96.6281 37.8902C96.9672 37.2324 97.4336 36.7352 98.0273 36.3986C98.621 36.0619 99.3113 35.8865 100.098 35.8721ZM100.109 37.4907C99.6698 37.4987 99.3015 37.648 99.0043 37.9385C98.7173 38.2288 98.5475 38.6748 98.4948 39.2764L101.699 39.218C101.69 38.7091 101.558 38.2941 101.304 37.9729C101.049 37.6416 100.651 37.4809 100.109 37.4907Z" fill="white"/>
<path d="M115.163 34.0368C115.006 34.5484 114.766 34.9825 114.443 35.339C114.123 35.6854 113.685 35.9219 113.129 36.0485C112.573 36.175 111.864 36.1591 111.003 36.0009C110.122 35.839 109.453 35.6069 108.996 35.3046C108.55 34.9941 108.263 34.6243 108.133 34.195C108.003 33.7657 107.973 33.277 108.044 32.7288L110.042 33.0958C109.979 33.6559 110.044 34.0472 110.237 34.2698C110.43 34.4924 110.787 34.6515 111.308 34.7472C111.738 34.8263 112.108 34.7955 112.418 34.6549C112.739 34.5061 112.978 34.1759 113.135 33.6643L115.163 34.0368ZM108.079 39.7667C108.044 39.937 107.991 40.1455 107.92 40.3922C107.858 40.6408 107.791 40.8934 107.717 41.1501C107.654 41.4087 107.592 41.6363 107.53 41.833C107.469 42.0296 107.425 42.1671 107.399 42.2453L112.365 37.1866L115.053 37.6805L113.369 45.8836L111.206 45.4862L111.879 42.211C111.934 41.9406 112.005 41.6469 112.091 41.3301C112.179 41.0033 112.262 40.7015 112.339 40.4247C112.429 40.1398 112.494 39.9231 112.535 39.7747L107.587 44.8212L104.899 44.3272L106.583 36.1242L108.746 36.5216L108.079 39.7667Z" fill="white"/>
<path d="M124.767 41.3034C125.305 41.5649 125.769 41.8819 126.159 42.2546C126.563 42.6226 126.832 43.0219 126.966 43.4527C127.109 43.8879 127.064 44.3347 126.832 44.7932C126.605 45.2424 126.287 45.5336 125.879 45.6665C125.481 45.8039 125.024 45.8214 124.508 45.7191L124.473 45.7879C124.755 46.0163 124.988 46.2613 125.174 46.5229C125.364 46.7754 125.474 47.0516 125.503 47.3517C125.547 47.6471 125.474 47.9828 125.283 48.3587C125.075 48.7713 124.748 49.0922 124.303 49.3212C123.871 49.5456 123.327 49.6349 122.669 49.589C122.025 49.5385 121.279 49.3072 120.432 48.8951C119.194 48.2925 118.316 47.6713 117.8 47.0317L118.656 45.34C118.891 45.6374 119.202 45.9542 119.588 46.2905C119.983 46.6313 120.436 46.9257 120.946 47.1739C121.501 47.4442 122.003 47.6082 122.45 47.6659C122.898 47.7237 123.203 47.5921 123.365 47.2712C123.667 46.6752 123.112 46.0338 121.7 45.347L120.908 44.9615L121.624 43.5449L122.376 43.9105C123.05 44.2383 123.597 44.4359 124.017 44.5031C124.446 44.5748 124.737 44.4593 124.89 44.1567C125.011 43.9183 124.983 43.6819 124.806 43.4475C124.634 43.204 124.28 42.9515 123.742 42.69C123.387 42.5172 122.979 42.3702 122.518 42.2489C122.058 42.1275 121.601 42.054 121.149 42.0282L121.272 40.3054C121.783 40.3486 122.32 40.4439 122.881 40.5911C123.446 40.7293 124.075 40.9667 124.767 41.3034Z" fill="white"/>
<path d="M132.983 46.1708C133.887 46.8176 134.432 47.511 134.617 48.2511C134.817 48.9888 134.619 49.7651 134.023 50.5799L130.706 55.1196L129.424 54.2024L129.741 53.0237L129.691 52.9884C129.136 53.1485 128.638 53.197 128.196 53.134C127.754 53.0709 127.253 52.8395 126.694 52.4397C126.094 52.0105 125.724 51.4801 125.585 50.8487C125.452 50.209 125.652 49.5232 126.187 48.7916C126.716 48.0682 127.355 47.7154 128.106 47.7332C128.862 47.7426 129.754 48.0894 130.781 48.7735L131.98 49.5739L132.198 49.2746C132.46 48.9171 132.557 48.5875 132.489 48.286C132.43 47.9904 132.236 47.725 131.907 47.4898C131.578 47.2546 131.221 47.0752 130.836 46.9515C130.457 46.8195 130.059 46.7125 129.644 46.6304L129.96 44.9386C130.461 45.0061 130.969 45.1416 131.484 45.3451C132.007 45.5545 132.506 45.8298 132.983 46.1708ZM130.454 50.1724C129.85 49.7657 129.36 49.5797 128.984 49.6147C128.608 49.6496 128.301 49.8292 128.064 50.1534C127.858 50.4361 127.791 50.6986 127.864 50.9409C127.944 51.1749 128.115 51.386 128.378 51.5742C128.772 51.8564 129.19 51.9781 129.632 51.9394C130.079 51.8923 130.461 51.6525 130.777 51.2202L131.187 50.659L130.454 50.1724Z" fill="white"/>
<path d="M143.138 55.6248L137.051 61.4759L135.483 59.854L140.322 55.2031L138.238 53.0478L133.399 57.6987L131.831 56.0768L137.918 50.2257L143.138 55.6248Z" fill="white"/>
<path d="M143.471 61.6691C143.325 61.7647 143.138 61.8742 142.911 61.9977C142.689 62.1298 142.461 62.2604 142.225 62.3895C141.995 62.5272 141.788 62.6437 141.605 62.7391C141.421 62.8346 141.292 62.9005 141.217 62.937L148.245 62.9178L149.712 65.1978L142.636 69.8012L141.456 67.967L144.281 66.129C144.514 65.9772 144.775 65.8199 145.062 65.657C145.358 65.4885 145.633 65.3341 145.885 65.1937C146.152 65.0562 146.353 64.9495 146.488 64.8737L139.482 64.8972L138.015 62.6172L145.091 58.0138L146.271 59.848L143.471 61.6691Z" fill="white"/>
<path d="M144.359 74.3725C143.889 73.232 143.842 72.2133 144.218 71.3164C144.607 70.4248 145.488 69.6863 146.861 69.1008C147.807 68.697 148.644 68.5269 149.372 68.5904C150.099 68.6539 150.72 68.9055 151.236 69.3453C151.755 69.7945 152.167 70.3883 152.471 71.1269C152.687 71.6504 152.822 72.1261 152.876 72.5538C152.934 72.9908 152.951 73.3846 152.929 73.7349L151.042 73.8144C151.039 73.4307 151.021 73.0757 150.986 72.7496C150.956 72.4328 150.883 72.1341 150.767 71.8537C150.32 70.7692 149.316 70.5601 147.754 71.2263C146.977 71.5574 146.463 71.9419 146.209 72.3798C145.959 72.8271 145.94 73.3078 146.152 73.822C146.334 74.2614 146.55 74.6252 146.803 74.9133C147.065 75.1973 147.365 75.4539 147.705 75.6829L145.901 76.4521C145.562 76.223 145.276 75.9491 145.045 75.6302C144.807 75.3246 144.579 74.9054 144.359 74.3725Z" fill="white"/>
<path d="M154.976 79.1745C155.223 80.2618 155.173 81.1509 154.825 81.8418C154.489 82.5401 153.833 83.0092 152.855 83.2492L147.412 84.5863L147.061 83.0443L148.07 82.3425L148.056 82.2832C147.539 82.045 147.136 81.7576 146.849 81.4211C146.562 81.0846 146.342 80.5802 146.189 79.9081C146.025 79.1865 146.098 78.537 146.409 77.9597C146.73 77.38 147.329 76.9823 148.206 76.7668C149.074 76.5538 149.78 76.6985 150.326 77.2011C150.882 77.7012 151.317 78.5493 151.632 79.7454L151.997 81.143L152.356 81.0548C152.785 80.9495 153.073 80.7587 153.221 80.4824C153.371 80.2159 153.401 79.885 153.311 79.4896C153.221 79.0942 153.073 78.7234 152.868 78.3772C152.673 78.0285 152.448 77.6872 152.193 77.3532L153.538 76.2557C153.866 76.6343 154.155 77.0696 154.404 77.5617C154.655 78.0636 154.846 78.6012 154.976 79.1745ZM150.47 80.6099C150.289 79.9032 150.046 79.4408 149.744 79.2228C149.442 79.0048 149.096 78.9435 148.707 79.039C148.368 79.1223 148.147 79.2811 148.042 79.5156C147.948 79.7475 147.936 80.0217 148.008 80.338C148.116 80.8124 148.347 81.1785 148.7 81.4361C149.064 81.6913 149.505 81.7552 150.023 81.6279L150.696 81.4626L150.47 80.6099Z" fill="white"/>
<path d="M154.579 92.4859L154.442 89.7585L147.796 90.229L147.682 87.9588L154.328 87.4882L154.19 84.7609L155.905 84.6395L156.294 92.3644L154.579 92.4859Z" fill="white"/>
<path d="M152.469 98.2285C152.306 99.5043 151.982 100.424 151.499 100.989C151.014 101.563 150.361 101.807 149.54 101.719C148.739 101.633 148.132 101.281 147.718 100.662C147.314 100.044 147.196 99.0823 147.363 97.7761L147.87 93.827L156.173 94.7128L155.883 96.976L152.674 96.6336L152.469 98.2285ZM149.8 99.4525C150.408 99.5174 150.778 99.0385 150.909 98.0158L151.108 96.4665L149.146 96.2572L148.943 97.8369C148.886 98.2824 148.921 98.6505 149.048 98.9412C149.174 99.2421 149.425 99.4125 149.8 99.4525Z" fill="white"/>
<path d="M145.454 105.336C145.829 104.143 146.447 103.316 147.306 102.852C148.172 102.402 149.311 102.384 150.725 102.799C151.699 103.085 152.441 103.484 152.951 103.996C153.46 104.509 153.769 105.101 153.877 105.773C153.982 106.455 153.913 107.182 153.67 107.955C153.497 108.502 153.295 108.96 153.061 109.329C152.825 109.709 152.586 110.028 152.344 110.288L150.866 109.15C151.11 108.848 151.324 108.558 151.507 108.281C151.687 108.013 151.823 107.733 151.915 107.44C152.272 106.306 151.646 105.503 150.038 105.031C149.239 104.797 148.603 104.77 148.13 104.952C147.655 105.143 147.332 105.508 147.163 106.046C147.019 106.505 146.95 106.928 146.956 107.314C146.972 107.703 147.035 108.095 147.145 108.49L145.288 107.945C145.178 107.55 145.137 107.154 145.167 106.757C145.183 106.367 145.279 105.893 145.454 105.336Z" fill="white"/>
<path d="M143.792 110.122L144.954 107.929L146.815 111.423C147.17 111.12 147.599 110.906 148.1 110.781C148.606 110.67 149.161 110.769 149.765 111.077C150.504 111.455 150.919 112.024 151.008 112.785C151.107 113.551 150.923 114.375 150.456 115.256L148.623 118.716L141.237 114.945L142.312 112.915L145.058 114.317L145.65 113.2L143.792 110.122ZM148.698 113.06C148.391 112.903 148.083 112.901 147.772 113.055C147.471 113.212 147.217 113.487 147.01 113.877L146.411 115.008L148.278 115.961L149.014 114.571C149.206 114.208 149.258 113.894 149.169 113.629C149.089 113.369 148.932 113.179 148.698 113.06Z" fill="white"/>
<path d="M142.566 126.602L140.302 124.369L138.035 126.651L140.299 128.883L138.675 130.518L132.788 124.713L134.412 123.079L136.838 125.471L139.105 123.189L136.679 120.797L138.303 119.163L144.19 124.968L142.566 126.602Z" fill="white"/>
<path d="M133.023 134.841C132.072 135.459 131.215 135.727 130.452 135.646C129.686 135.578 129.035 135.128 128.5 134.296L125.518 129.659L126.866 128.783L127.848 129.481L127.9 129.447C127.962 128.877 128.107 128.397 128.334 128.008C128.562 127.619 128.97 127.233 129.557 126.851C130.188 126.441 130.825 126.279 131.469 126.366C132.119 126.461 132.684 126.883 133.165 127.63C133.64 128.369 133.726 129.084 133.423 129.775C133.125 130.474 132.46 131.184 131.428 131.903L130.221 132.742L130.418 133.048C130.653 133.413 130.924 133.616 131.232 133.657C131.531 133.703 131.854 133.614 132.199 133.389C132.545 133.164 132.849 132.894 133.112 132.578C133.38 132.271 133.632 131.939 133.867 131.581L135.33 132.454C135.075 132.897 134.754 133.322 134.368 133.731C133.972 134.145 133.524 134.515 133.023 134.841ZM130.244 131.12C130.855 130.698 131.216 130.307 131.327 129.946C131.438 129.584 131.386 129.238 131.173 128.907C130.988 128.618 130.768 128.466 130.513 128.451C130.264 128.445 130.001 128.532 129.724 128.712C129.31 128.981 129.036 129.328 128.904 129.751C128.777 130.183 128.856 130.62 129.14 131.061L129.508 131.634L130.244 131.12Z" fill="white"/>
<path d="M117.942 141.36L115.519 142.077L117.642 137.298L113.011 134.168L115.509 133.429L119.934 136.509L118.804 132.455L121.006 131.803L123.233 139.795L121.031 140.446L119.95 136.567L117.942 141.36Z" fill="white"/>
<path d="M114.199 142.351L111.707 142.59L109.779 138.074C109.68 137.858 109.601 137.631 109.542 137.392C109.484 137.163 109.434 136.917 109.394 136.656L109.348 136.66C109.338 136.926 109.316 137.179 109.282 137.417C109.24 137.666 109.191 137.905 109.137 138.135L107.946 142.951L105.5 143.186L108.322 133.481C108.573 132.589 108.988 131.901 109.567 131.417C110.135 130.923 110.817 130.638 111.612 130.562C111.867 130.537 112.092 130.531 112.288 130.543C112.473 130.545 112.638 130.555 112.783 130.572L112.919 132.366C112.805 132.357 112.671 132.349 112.517 132.343C112.352 132.339 112.183 132.345 112.01 132.361C111.531 132.407 111.165 132.59 110.912 132.911C110.648 133.222 110.465 133.587 110.364 134.005L110.257 134.429L114.199 142.351Z" fill="white"/>
<path d="M99.3138 142.899C98.379 142.817 97.6619 142.385 97.1626 141.604C96.6622 140.833 96.489 139.742 96.6431 138.332C96.7973 136.922 97.2146 135.873 97.895 135.185C98.5743 134.508 99.3814 134.21 100.316 134.292C100.916 134.345 101.382 134.493 101.714 134.737C102.045 134.992 102.308 135.266 102.501 135.559L102.623 135.57C102.588 135.137 102.592 134.727 102.634 134.342L103 130.994L105.271 131.194L103.964 143.154L102.12 142.992L101.918 141.883L101.811 141.874C101.551 142.189 101.219 142.452 100.817 142.662C100.414 142.873 99.9133 142.952 99.3138 142.899ZM100.243 141.153C100.833 141.204 101.269 141.058 101.553 140.714C101.827 140.37 102.015 139.823 102.117 139.074L102.144 138.831C102.231 138.029 102.182 137.4 101.996 136.943C101.799 136.496 101.385 136.245 100.755 136.189C100.237 136.144 99.8325 136.323 99.5421 136.728C99.2404 137.142 99.0452 137.755 98.9565 138.566C98.778 140.199 99.2069 141.062 100.243 141.153Z" fill="white"/>
<path d="M92.6559 132.831C93.8525 133.156 94.6831 133.736 95.1476 134.573C95.5995 135.417 95.6169 136.552 95.2 137.977C94.9125 138.96 94.5114 139.716 93.9968 140.245C93.4822 140.774 92.8875 141.106 92.2127 141.241C91.5282 141.374 90.7984 141.335 90.0236 141.125C89.4743 140.976 89.0144 140.793 88.6439 140.576C88.2636 140.356 87.9429 140.131 87.682 139.902L88.8253 138.381C89.1284 138.612 89.419 138.813 89.6972 138.984C89.9655 139.152 90.2469 139.276 90.5411 139.356C91.6789 139.664 92.485 139.007 92.9594 137.385C93.1951 136.579 93.222 135.945 93.0399 135.482C92.8479 135.016 92.4822 134.71 91.9428 134.563C91.4818 134.439 91.0575 134.387 90.6699 134.409C90.2794 134.441 89.8858 134.52 89.489 134.646L90.0368 132.774C90.4335 132.648 90.8312 132.591 91.2298 132.604C91.6214 132.604 92.0968 132.68 92.6559 132.831Z" fill="white"/>
<path d="M82.5489 128.662C83.6325 129.254 84.3023 130.012 84.5584 130.937C84.8006 131.866 84.555 132.98 83.8215 134.278C83.3156 135.173 82.7523 135.821 82.1316 136.22C81.511 136.619 80.8583 136.807 80.1737 136.784C79.4801 136.757 78.7826 136.551 78.0809 136.168C77.5835 135.896 77.1806 135.611 76.8721 135.314C76.5547 135.012 76.2963 134.718 76.0969 134.433L77.5557 133.209C77.7957 133.505 78.0306 133.768 78.2604 133.999C78.4813 134.225 78.725 134.411 78.9915 134.556C80.0217 135.119 80.9542 134.662 81.7889 133.185C82.2037 132.451 82.3765 131.837 82.3074 131.342C82.2293 130.842 81.9461 130.459 81.4576 130.192C81.0401 129.964 80.6412 129.816 80.2608 129.749C79.8753 129.691 79.4759 129.677 79.0626 129.709L80.0263 128.004C80.4396 127.972 80.8377 128.008 81.2207 128.112C81.5999 128.202 82.0427 128.385 82.5489 128.662Z" fill="white"/>
<path d="M70.7458 125.688C71.6236 124.596 72.5867 123.978 73.6349 123.835C74.6753 123.686 75.6828 123.996 76.6576 124.767C77.26 125.243 77.6924 125.801 77.9549 126.442C78.2095 127.076 78.2682 127.753 78.131 128.472C77.9873 129.199 77.6218 129.927 77.0345 130.658C76.1566 131.75 75.2008 132.367 74.1669 132.508C73.133 132.649 72.1247 132.332 71.142 131.555C70.5317 131.073 70.0993 130.514 69.8447 129.88C69.5901 129.245 69.5314 128.569 69.6686 127.85C69.7994 127.139 70.1584 126.418 70.7458 125.688ZM75.2275 129.23C75.7503 128.58 76.0443 128.004 76.1093 127.504C76.16 127.006 75.9475 126.569 75.472 126.193C75.0044 125.823 74.5353 125.722 74.0646 125.888C73.5795 126.056 73.0756 126.465 72.5527 127.116C72.0299 127.766 71.7464 128.337 71.7022 128.827C71.6436 129.319 71.8521 129.753 72.3276 130.129C72.7952 130.498 73.2683 130.603 73.7469 130.443C74.2111 130.285 74.7047 129.88 75.2275 129.23Z" fill="white"/>
<path d="M67.6368 115.594C68.3852 116.572 68.691 117.54 68.5543 118.498C68.4032 119.454 67.7349 120.387 66.5494 121.298C65.7319 121.926 64.9613 122.302 64.2376 122.425C63.514 122.548 62.8455 122.463 62.2322 122.171C61.6127 121.87 61.0607 121.404 60.5761 120.77C60.2325 120.321 59.98 119.898 59.8184 119.5C59.6507 119.095 59.5331 118.72 59.4656 118.378L61.2807 117.823C61.381 118.192 61.4894 118.528 61.606 118.833C61.7164 119.13 61.8637 119.399 62.0477 119.64C62.7593 120.57 63.7896 120.516 65.1385 119.48C65.8089 118.965 66.2116 118.465 66.3464 117.979C66.4751 117.486 66.3707 117.018 66.0333 116.578C65.745 116.201 65.4414 115.906 65.1225 115.693C64.7953 115.486 64.4376 115.315 64.0491 115.181L65.6066 113.984C65.995 114.119 66.3426 114.31 66.6493 114.558C66.958 114.792 67.2872 115.137 67.6368 115.594Z" fill="white"/>
<path d="M55.3372 111.978L54.1752 109.782L59.2679 110.751L61.464 105.518L62.6615 107.782L60.4755 112.803L64.2416 110.769L65.2974 112.765L57.8739 116.774L56.8181 114.778L60.4211 112.832L55.3372 111.978Z" fill="white"/>
<path d="M55.683 104.195C55.8499 104.143 56.0588 104.089 56.3099 104.032C56.5582 103.966 56.8127 103.903 57.0736 103.843C57.3317 103.774 57.5617 103.718 57.7637 103.677C57.9657 103.635 58.1074 103.607 58.1888 103.592L51.4721 101.669L50.7066 99.0595L58.7454 96.5656L59.3613 98.6646L56.1516 99.6603C55.8866 99.7425 55.5942 99.8226 55.2744 99.9006C54.9448 99.9817 54.6397 100.055 54.3592 100.121C54.066 100.18 53.8443 100.228 53.6943 100.264L60.392 102.177L61.1575 104.787L53.1186 107.281L52.5028 105.182L55.683 104.195Z" fill="white"/>
<path d="M49.5826 88.7034L56.2618 88.0387L56.1653 86.8227L60.827 86.3588L60.9886 88.3955L57.993 88.6936L58.4357 94.2718L61.4314 93.9736L61.5931 96.0103L56.9314 96.4743L56.8759 95.7751C56.2865 95.4661 55.6251 95.2204 54.8918 95.0381C54.1482 94.8568 53.3628 94.7307 52.5356 94.6598C51.7084 94.5889 50.8793 94.5591 50.0483 94.5703L49.5826 88.7034ZM51.6093 92.5C52.5462 92.5293 53.4409 92.6088 54.2933 92.7385C55.1356 92.8691 55.9337 93.091 56.6877 93.404L56.4416 90.3034L51.4742 90.7977L51.6093 92.5Z" fill="white"/>
<path d="M50.2542 79.7208L50.5554 77.2279L54.1467 80.9071L58.9012 77.7643L58.5908 80.3331L53.9649 83.3042L58.1813 83.7228L57.9076 85.9876L49.5968 85.1625L49.8704 82.8976L53.9041 83.2981L50.2542 79.7208Z" fill="white"/>
<path d="M57.4809 68.7425C58.8001 69.1515 59.7025 69.8175 60.1882 70.7406C60.6772 71.6539 60.7235 72.709 60.3271 73.9057C60.0822 74.6451 59.703 75.257 59.1895 75.7415C58.6793 76.2163 58.0638 76.5244 57.3432 76.6657C56.6128 76.804 55.8063 76.7363 54.9236 76.4626C53.6044 76.0536 52.7052 75.3939 52.2259 74.4836C51.7467 73.5733 51.7069 72.5149 52.1065 71.3085C52.3546 70.5593 52.7338 69.9474 53.2441 69.4726C53.7543 68.9978 54.3698 68.6898 55.0904 68.5485C55.8014 68.4041 56.5982 68.4688 57.4809 68.7425ZM55.6584 74.2444C56.4441 74.488 57.0825 74.5465 57.5737 74.4198C58.0584 74.2804 58.3974 73.9189 58.5908 73.3351C58.7809 72.7611 58.7191 72.2859 58.4052 71.9097C58.0848 71.5207 57.5318 71.2044 56.7461 70.9607C55.9604 70.7171 55.3301 70.6665 54.8551 70.8089C54.3736 70.9386 54.0361 71.2953 53.8428 71.879C53.6526 72.4531 53.7129 72.9331 54.0236 73.3191C54.3278 73.6923 54.8727 74.0008 55.6584 74.2444Z" fill="white"/>
<path d="M55.7258 56.0544C56.155 56.3618 56.4816 56.7228 56.7057 57.1374C56.9209 57.5469 56.9906 58.0326 56.9148 58.5946C56.8389 59.1566 56.5745 59.8176 56.1216 60.5775C55.6582 61.355 55.2029 61.9116 54.7556 62.247C54.3048 62.5686 53.8533 62.7235 53.4011 62.7116C52.9489 62.6997 52.4757 62.5747 51.9816 62.3367L53.0322 60.5739C53.5403 60.8082 53.9338 60.8693 54.2126 60.7572C54.4914 60.6451 54.7677 60.3593 55.0416 59.8998C55.268 59.5199 55.3691 59.1625 55.3449 58.8278C55.3171 58.4791 55.0886 58.1511 54.6594 57.8436L55.7258 56.0544ZM58.6582 64.5024C58.8071 64.5885 58.9858 64.7036 59.1943 64.8479C59.408 64.9833 59.6235 65.1256 59.8407 65.2749C60.0632 65.4154 60.2568 65.5451 60.4215 65.664C60.5862 65.7829 60.7009 65.867 60.7657 65.9164L57.7237 59.668L59.1376 57.2955L66.3122 61.4418L65.1746 63.3503L62.3101 61.6949C62.0736 61.5582 61.8204 61.4 61.5506 61.2203C61.2721 61.0356 61.0154 60.8635 60.7807 60.7041C60.5424 60.5307 60.3602 60.4017 60.2341 60.3169L63.2709 66.5445L61.8569 68.9169L54.6824 64.7707L55.8199 62.8621L58.6582 64.5024Z" fill="white"/>
<path d="M96.6559 106.308C97.0237 107.05 97.9237 107.353 98.666 106.986L110.763 100.992C111.505 100.624 111.808 99.7244 111.441 98.982C111.073 98.2397 110.173 97.9361 109.431 98.3039L98.6781 103.632L93.3505 92.8791C92.9827 92.1368 92.0828 91.8332 91.3404 92.201C90.5981 92.5688 90.2945 93.4687 90.6623 94.211L96.6559 106.308ZM109.421 76.4795C109.686 75.6945 109.264 74.8435 108.479 74.5787C107.695 74.3139 106.844 74.7355 106.579 75.5205L109.421 76.4795ZM99.4213 106.121L109.421 76.4795L106.579 75.5205L96.5787 105.162L99.4213 106.121Z" fill="white"/>
</svg>
